HIERARCHY
ROOT Hips
{
 OFFSET 0.000000 0.000000 0.000000
 CHANNELS 6 Xposition Yposition Zposition Yrotation Xrotation Zrotation
 JOINT Chest
 {
  OFFSET 0.000000 9.929072 0.003365
  CHANNELS 3 Yrotation Xrotation Zrotation
  JOINT Chest2
  {
   OFFSET 0.000000 10.971018 -0.006113
   CHANNELS 3 Yrotation Xrotation Zrotation
   JOINT Chest3
   {
    OFFSET 0.000000 9.912974 0.000000
    CHANNELS 3 Yrotation Xrotation Zrotation
    JOINT Chest4
    {
     OFFSET 0.000000 9.912974 0.000000
     CHANNELS 3 Yrotation Xrotation Zrotation
     JOINT Neck
     {
      OFFSET 0.000000 13.927846 0.000000
      CHANNELS 3 Yrotation Xrotation Zrotation
      JOINT Head
      {
       OFFSET 0.000000 9.224641 -0.014537
       CHANNELS 3 Yrotation Xrotation Zrotation
       End Site
       {
        OFFSET 0.000000 17.699375 -0.007593
       }
      }
     }
     JOINT RightCollar
     {
      OFFSET -2.989629 7.767491 0.000000
      CHANNELS 3 Yrotation Xrotation Zrotation
      JOINT RightShoulder
      {
       OFFSET -13.837047 0.000000 0.000000
       CHANNELS 3 Yrotation Xrotation Zrotation
       JOINT RightElbow
       {
        OFFSET 0.000000 -29.499480 0.000000
        CHANNELS 3 Yrotation Xrotation Zrotation
        JOINT RightWrist
        {
         OFFSET 0.000000 -24.159672 0.001937
         CHANNELS 3 Yrotation Xrotation Zrotation
         End Site
         {
          OFFSET 0.000000 -18.064068 0.000000
         }
        }
       }
      }
     }
     JOINT LeftCollar
     {
      OFFSET 2.989629 7.767491 0.000000
      CHANNELS 3 Yrotation Xrotation Zrotation
      JOINT LeftShoulder
      {
       OFFSET 13.837047 0.000000 0.000000
       CHANNELS 3 Yrotation Xrotation Zrotation
       JOINT LeftElbow
       {
        OFFSET 0.000000 -29.499480 0.000000
        CHANNELS 3 Yrotation Xrotation Zrotation
        JOINT LeftWrist
        {
         OFFSET 0.000000 -24.159672 0.001937
         CHANNELS 3 Yrotation Xrotation Zrotation
         End Site
         {
          OFFSET 0.000000 -18.064068 0.000000
         }
        }
       }
      }
     }
    }
   }
  }
 }
 JOINT RightHip
 {
  OFFSET -8.036712 -0.016490 -0.001683
  CHANNELS 3 Yrotation Xrotation Zrotation
  JOINT RightKnee
  {
   OFFSET 0.000000 -42.121952 0.001592
   CHANNELS 3 Yrotation Xrotation Zrotation
   JOINT RightAnkle
   {
    OFFSET 0.000000 -39.436059 -0.045183
    CHANNELS 3 Yrotation Xrotation Zrotation
    JOINT RightToe
    {
     OFFSET 0.000000 -5.848915 14.759459
     CHANNELS 3 Yrotation Xrotation Zrotation
     End Site
     {
      OFFSET 0.000000 -1.542647 7.054364
     }
    }
   }
  }
 }
 JOINT LeftHip
 {
  OFFSET 8.036712 -0.016490 -0.001683
  CHANNELS 3 Yrotation Xrotation Zrotation
  JOINT LeftKnee
  {
   OFFSET 0.000000 -42.121952 0.001592
   CHANNELS 3 Yrotation Xrotation Zrotation
   JOINT LeftAnkle
   {
    OFFSET 0.000000 -39.436059 -0.045183
    CHANNELS 3 Yrotation Xrotation Zrotation
    JOINT LeftToe
    {
     OFFSET 0.000000 -5.848915 14.759459
     CHANNELS 3 Yrotation Xrotation Zrotation
     End Site
     {
      OFFSET 0.000000 -1.542647 7.054364
     }
    }
   }
  }
 }
}
MOTION
Frames: 7
Frame Time: 0.008333
35.301097 87.984652 111.917944 68.365520 -10.739034 3.478022 1.522383 10.095961 -0.077946 0.656419 4.508513 -0.091453 0.656419 4.508513 -0.091453 0.492736 3.381291 -0.073406 -3.341948 10.574817 -2.953552 -5.123005 -16.573480 -4.195409 2.329565 3.726206 11.831766 -11.331772 -21.326297 -4.911288 11.656998 2.850391 -8.780294 25.838816 -8.211939 -21.651365 5.110415 3.213538 -8.047570 -6.888293 -16.116432 9.798511 -8.391528 -14.312874 -4.534934 -33.060319 3.940392 18.422111 0.655547 -17.346088 -1.193685 -9.155586 58.128397 -10.417973 0.552535 3.338925 7.758021 -0.250630 -13.867778 -4.556272 0.334761 6.356664 -9.942240 -0.730722 9.853191 -0.901099 5.636865 -4.054352 9.559733 -0.058327 -0.084404 -0.727691
35.934148 88.011196 112.101894 68.498438 -10.799044 3.392689 1.448419 10.127120 -0.018750 0.635334 4.508449 -0.048941 0.635334 4.508449 -0.048941 0.476616 3.381290 -0.041382 -3.407393 10.618111 -3.005038 -5.226253 -16.494074 -4.265921 2.310438 3.751750 11.788521 -11.461931 -21.368022 -4.967219 11.632921 2.653796 -8.628226 25.788448 -8.358800 -21.595182 5.132124 3.222180 -8.082985 -6.909353 -16.480567 9.675750 -8.570825 -14.409598 -4.532007 -33.174312 4.055992 18.054745 1.071679 -17.767211 -1.118968 -10.112014 56.071014 -10.507710 0.452641 2.861698 7.797245 -0.225582 -12.665587 -4.855739 0.101966 6.875032 -9.965202 -0.790587 9.793360 -0.917545 5.781547 -4.457018 9.795162 -0.055699 -0.092246 -0.748096
36.560887 88.026772 112.290377 68.593268 -10.814515 3.291566 1.413597 10.122157 0.071984 0.615888 4.507938 -0.008888 0.615888 4.507938 -0.008888 0.461743 3.380948 -0.011214 -3.468111 10.665689 -3.057488 -5.319926 -16.406736 -4.340535 2.305080 3.757549 11.753725 -11.575106 -21.398934 -5.047135 11.595915 2.474333 -8.491497 25.683362 -8.517169 -21.526890 5.148370 3.221301 -8.119688 -6.878136 -16.842516 9.525202 -8.750018 -14.591764 -4.579138 -33.316953 4.217566 17.684993 1.446375 -18.158386 -1.022843 -11.013654 53.853548 -10.537578 0.459341 2.500463 7.845120 -0.230988 -11.250945 -5.229319 -0.056703 7.348232 -9.971435 -0.821463 9.756358 -0.885295 5.853224 -4.875095 9.995066 -0.049068 -0.092392 -0.759558
37.194657 88.035752 112.479056 68.708222 -10.837488 3.213472 1.371152 10.116252 0.142390 0.594657 4.506558 0.026351 0.594657 4.506558 0.026351 0.445568 3.379948 0.015360 -3.525709 10.735126 -3.107927 -5.408515 -16.278807 -4.413040 2.301583 3.778900 11.739075 -11.668712 -21.431765 -5.138623 11.544354 2.312692 -8.366902 25.562340 -8.671538 -21.458404 5.149618 3.232660 -8.149403 -6.821122 -17.185276 9.378466 -8.953784 -14.740298 -4.611520 -33.434917 4.297012 17.341469 1.743798 -18.476138 -0.966891 -11.920819 51.547556 -10.543113 0.574091 2.165290 7.881062 -0.282498 -9.522576 -5.644693 -0.220454 7.829404 -9.999362 -0.797978 9.728591 -0.847380 5.852890 -5.301629 10.190435 -0.042240 -0.092452 -0.763014
37.833003 88.036151 112.668438 68.789705 -10.851388 3.144488 1.347433 10.096425 0.216093 0.575096 4.505762 0.058338 0.575096 4.505762 0.058338 0.430669 3.379380 0.039483 -3.581264 10.819838 -3.155895 -5.494303 -16.122502 -4.481977 2.316811 3.809955 11.723113 -11.743730 -21.467905 -5.229741 11.458737 2.163068 -8.254702 25.432090 -8.810387 -21.405456 5.149083 3.248402 -8.184928 -6.766420 -17.506062 9.230681 -9.096714 -14.977861 -4.691372 -33.576127 4.401116 17.018320 1.969313 -18.739045 -0.922687 -12.576147 49.112088 -10.331209 0.750441 1.943327 7.818861 -0.389575 -7.432966 -6.048738 -0.343614 8.297945 -10.028501 -0.731085 9.727137 -0.809854 5.808169 -5.738799 10.392317 -0.035203 -0.101276 -0.766668
38.478995 88.028099 112.853663 68.900168 -10.880721 3.094673 1.296172 10.095375 0.270819 0.554617 4.503542 0.085550 0.554617 4.503542 0.085550 0.415116 3.377738 0.060035 -3.631901 10.930167 -3.202623 -5.571213 -15.918637 -4.551186 2.327428 3.844578 11.716682 -11.796926 -21.503758 -5.320951 11.345529 2.031130 -8.140386 25.335271 -8.925492 -21.373343 5.145879 3.259893 -8.221979 -6.730695 -17.800233 9.098004 -9.229141 -15.179518 -4.746427 -33.673068 4.429752 16.728359 2.099957 -18.930626 -0.914873 -13.064310 46.664028 -9.939537 0.953597 1.753978 7.629483 -0.535592 -5.005280 -6.420591 -0.501685 8.785874 -10.079589 -0.635523 9.716106 -0.785502 5.741497 -6.179611 10.596419 -0.029594 -0.106909 -0.760367
39.130110 88.012363 113.039253 69.000801 -10.927628 3.055432 1.244080 10.094210 0.321982 0.534295 4.501823 0.110369 0.534295 4.501823 0.110369 0.399701 3.376467 0.078792 -3.678532 11.070616 -3.251371 -5.639591 -15.658909 -4.626609 2.351642 3.878694 11.704281 -11.846851 -21.533215 -5.400114 11.190582 1.921098 -8.045934 25.257858 -8.996037 -21.346644 5.151908 3.282615 -8.264118 -6.713940 -18.066357 8.973749 -9.285069 -15.450645 -4.856891 -33.785508 4.473611 16.483701 2.126345 -19.036292 -0.913855 -13.305881 44.157513 -9.365635 1.196097 1.672845 7.369170 -0.743926 -2.267982 -6.789516 -0.651777 9.294862 -10.143248 -0.530548 9.709107 -0.750507 5.662064 -6.624274 10.780122 -0.020468 -0.116500 -0.743602
